<svg xmlns="http://www.w3.org/2000/svg" viewBox="-233 233 32 104" width="32">
  <path fill="#444444" d="M-217 233c-8.8 0-16 7.2-16 16s7.2 16 16 16 16-7.2 16-16-7.2-16-16-16zm8 11.9v.5c0 5.4-4.1 11.7-11.7 11.7-2.3 0-4.5-.7-6.3-1.8.3 0 .6.1 1 .1 1.9 0 3.7-.7 5.1-1.8-1.8 0-3.3-1.2-3.8-2.8.3 0 .5.1.8.1.4 0 .7-.1 1.1-.1-1.9-.4-3.3-2-3.3-4v-.1c.6.3 1.2.5 1.9.5-1.1-.7-1.8-2-1.8-3.4 0-.8.2-1.5.6-2.1 2 2.5 5 4.1 8.5 4.3-.1-.3-.1-.6-.1-.9 0-2.3 1.8-4.1 4.1-4.1 1.2 0 2.2.5 3 1.3.9-.2 1.8-.5 2.6-1-.3 1-1 1.8-1.8 2.3.8-.1 1.6-.3 2.4-.6-.9.6-1.5 1.3-2.3 1.9z"/>
  <path fill="#D33131" d="M-217 269c-8.8 0-16 7.2-16 16s7.2 16 16 16 16-7.2 16-16-7.2-16-16-16zm8 11.9v.5c0 5.4-4.1 11.7-11.7 11.7-2.3 0-4.5-.7-6.3-1.8.3 0 .6.1 1 .1 1.9 0 3.7-.7 5.1-1.8-1.8 0-3.3-1.2-3.8-2.8.3 0 .5.1.8.1.4 0 .7 0 1.1-.1-1.9-.4-3.3-2-3.3-4v-.1c.6.3 1.2.5 1.9.5-1.1-.7-1.8-2-1.8-3.4 0-.8.2-1.5.6-2.1 2 2.5 5 4.1 8.5 4.3-.1-.3-.1-.6-.1-.9 0-2.3 1.8-4.1 4.1-4.1 1.2 0 2.2.5 3 1.3.9-.2 1.8-.5 2.6-1-.3 1-1 1.8-1.8 2.3.8-.1 1.6-.3 2.4-.6-.9.6-1.5 1.3-2.3 1.9z"/>
  <path fill="#FFFFFF" d="M-217 305c-8.8 0-16 7.2-16 16s7.2 16 16 16 16-7.2 16-16-7.2-16-16-16zm8 11.9v.5c0 5.4-4.1 11.7-11.7 11.7-2.3 0-4.5-.7-6.3-1.8.3 0 .6.1 1 .1 1.9 0 3.7-.7 5.1-1.8-1.8 0-3.3-1.2-3.8-2.8.3 0 .5.1.8.1.4 0 .7 0 1.1-.1-1.9-.4-3.3-2-3.3-4v-.1c.6.3 1.2.5 1.9.5-1.1-.7-1.8-2-1.8-3.4 0-.8.2-1.5.6-2.1 2 2.5 5 4.1 8.5 4.3-.1-.3-.1-.6-.1-.9 0-2.3 1.8-4.1 4.1-4.1 1.2 0 2.2.5 3 1.3.9-.2 1.8-.5 2.6-1-.3 1-1 1.8-1.8 2.3.8-.1 1.6-.3 2.4-.6-.9.6-1.5 1.3-2.3 1.9z"/>
</svg>
