<svg xmlns="http://www.w3.org/2000/svg" viewBox="-233 235 32 104" width="32">
  <path fill="#444444" d="M-217 235c-8.8 0-16 7.2-16 16s7.2 16 16 16 16-7.2 16-16-7.2-16-16-16zm9.5 25.5c-1.2 1.2-2.7 2.2-4.3 2.9-.4.2-.8.3-1.2.5v-2.4c0-1.3-.4-2.2-1.3-2.8.5-.1 1-.1 1.5-.2s.9-.2 1.4-.4c.5-.2 1-.4 1.4-.6.4-.2.8-.6 1.2-1 .4-.4.7-.8.9-1.3.2-.5.4-1.1.6-1.8s.2-1.5.2-2.3c0-1.6-.5-3-1.6-4.1.5-1.2.4-2.6-.2-4.1h-.4c-.3 0-.8.1-1.5.3s-1.5.7-2.4 1.3c-1.2-.3-2.5-.5-3.9-.5-1.3 0-2.6.2-3.8.5-.6-.4-1.1-.7-1.6-.9-.5-.2-.9-.4-1.2-.5-.3-.1-.6-.1-.8-.2h-.7c-.6 1.5-.6 2.8-.2 4.1-1.1 1.1-1.6 2.5-1.6 4.1 0 .8.1 1.6.2 2.3.1.7.3 1.3.6 1.8s.6.9.9 1.3c.4.4.8.7 1.2 1s.9.5 1.4.6 1 .3 1.4.4c.5.1.9.2 1.5.2-.9.6-1.3 1.5-1.3 2.8v2.4c-.5-.1-.9-.3-1.4-.5-1.6-.7-3-1.6-4.3-2.9-1.2-1.2-2.2-2.7-2.9-4.3-.7-1.7-1.1-3.4-1.1-5.2 0-1.8.4-3.6 1.1-5.2.7-1.6 1.6-3 2.9-4.3s2.7-2.2 4.3-2.9c1.7-.7 3.4-1.1 5.2-1.1s3.6.4 5.2 1.1c1.6.7 3 1.6 4.3 2.9s2.2 2.7 2.9 4.3c.7 1.7 1.1 3.4 1.1 5.2 0 1.8-.4 3.6-1.1 5.2-.4 1.6-1.4 3.1-2.6 4.3z"/>
  <path fill="#D33131" d="M-217 271c-8.8 0-16 7.2-16 16s7.2 16 16 16 16-7.2 16-16-7.2-16-16-16zm9.5 25.5c-1.2 1.2-2.7 2.2-4.3 2.9-.4.2-.8.3-1.2.5v-2.4c0-1.3-.4-2.2-1.3-2.8.5-.1 1-.1 1.5-.2s.9-.2 1.4-.4c.5-.2 1-.4 1.4-.6.4-.2.8-.6 1.2-1 .4-.4.7-.8.9-1.3s.4-1.1.6-1.8c.1-.7.2-1.5.2-2.3 0-1.6-.5-3-1.6-4.1.5-1.2.4-2.6-.2-4.1h-.4c-.3 0-.8.1-1.5.3-.7.3-1.5.7-2.4 1.3-1.2-.3-2.5-.5-3.9-.5-1.3 0-2.6.2-3.8.5-.6-.4-1.1-.7-1.6-.9s-.9-.4-1.2-.5c-.3-.1-.6-.1-.8-.2h-.7c-.6 1.5-.6 2.8-.2 4.1-1.1 1.1-1.6 2.5-1.6 4.1 0 .8.1 1.6.2 2.3s.3 1.3.6 1.8.6.9.9 1.3c.4.4.8.7 1.2 1s.9.5 1.4.6 1 .3 1.4.4c.5.1.9.2 1.5.2-.9.6-1.3 1.5-1.3 2.8v2.4c-.5-.1-.9-.3-1.4-.5-1.6-.7-3-1.6-4.3-2.9-1.2-1.2-2.2-2.7-2.9-4.3-.7-1.7-1.1-3.4-1.1-5.2 0-1.8.4-3.6 1.1-5.2.7-1.6 1.6-3 2.9-4.3 1.2-1.2 2.7-2.2 4.3-2.9 1.7-.7 3.4-1.1 5.2-1.1s3.6.4 5.2 1.1c1.6.7 3 1.6 4.3 2.9 1.2 1.2 2.2 2.7 2.9 4.3.7 1.7 1.1 3.4 1.1 5.2s-.4 3.6-1.1 5.2c-.4 1.6-1.4 3.1-2.6 4.3z"/>
  <path fill="#FFFFFF" d="M-217 307c-8.8 0-16 7.2-16 16s7.2 16 16 16 16-7.2 16-16-7.2-16-16-16zm9.5 25.5c-1.2 1.2-2.7 2.2-4.3 2.9-.4.2-.8.3-1.2.5v-2.4c0-1.3-.4-2.2-1.3-2.8.5-.1 1-.1 1.5-.2s.9-.2 1.4-.4c.5-.2 1-.4 1.4-.6.4-.2.8-.6 1.2-1 .4-.4.7-.8.9-1.3s.4-1.1.6-1.8c.1-.7.2-1.5.2-2.3 0-1.6-.5-3-1.6-4.1.5-1.2.4-2.6-.2-4.1h-.4c-.3 0-.8.1-1.5.3-.7.3-1.5.7-2.4 1.3-1.2-.3-2.5-.5-3.9-.5-1.3 0-2.6.2-3.8.5-.6-.4-1.1-.7-1.6-.9s-.9-.4-1.2-.5c-.3-.1-.6-.1-.8-.2h-.7c-.6 1.5-.6 2.8-.2 4.1-1.1 1.1-1.6 2.5-1.6 4.1 0 .8.1 1.6.2 2.3s.3 1.3.6 1.8.6.9.9 1.3c.4.4.8.7 1.2 1s.9.5 1.4.6 1 .3 1.4.4c.5.1.9.2 1.5.2-.9.6-1.3 1.5-1.3 2.8v2.4c-.5-.1-.9-.3-1.4-.5-1.6-.7-3-1.6-4.3-2.9-1.2-1.2-2.2-2.7-2.9-4.3-.7-1.7-1.1-3.4-1.1-5.2 0-1.8.4-3.6 1.1-5.2.7-1.6 1.6-3 2.9-4.3 1.2-1.2 2.7-2.2 4.3-2.9 1.7-.7 3.4-1.1 5.2-1.1s3.6.4 5.2 1.1c1.6.7 3 1.6 4.3 2.9 1.2 1.2 2.2 2.7 2.9 4.3.7 1.7 1.1 3.4 1.1 5.2s-.4 3.6-1.1 5.2c-.4 1.6-1.4 3.1-2.6 4.3z"/>
</svg>
