<svg xmlns="http://www.w3.org/2000/svg" viewBox="-249 219 32 104" width="32">
  <path fill="#D33131" d="M-233 255c-8.8 0-16 7.2-16 16s7.2 16 16 16 16-7.2 16-16-7.2-16-16-16zm-13 16c0-7.2 5.8-13 13-13 3.4 0 6.5 1.3 8.9 3.5L-237 267l-5.5 12.9c-2.2-2.4-3.5-5.5-3.5-8.9zm15.3 2.3l-8 3.4 3.4-8 4.6 4.6zM-233 284c-3.4 0-6.5-1.3-8.9-3.5l12.9-5.5 5.5-12.9c2.2 2.3 3.5 5.4 3.5 8.9 0 7.2-5.8 13-13 13z"/>
  <path fill="#444444" d="M-233 219c-8.8 0-16 7.2-16 16s7.2 16 16 16 16-7.2 16-16-7.2-16-16-16zm-13 16c0-7.2 5.8-13 13-13 3.4 0 6.5 1.3 8.9 3.5L-237 231l-5.5 12.9c-2.2-2.4-3.5-5.5-3.5-8.9zm15.3 2.3l-8 3.4 3.4-8 4.6 4.6zM-233 248c-3.4 0-6.5-1.3-8.9-3.5l12.9-5.5 5.5-12.9c2.2 2.3 3.5 5.4 3.5 8.9 0 7.2-5.8 13-13 13z"/>
  <path fill="#FFFFFF" d="M-233 291c-8.8 0-16 7.2-16 16s7.2 16 16 16 16-7.2 16-16-7.2-16-16-16zm-13 16c0-7.2 5.8-13 13-13 3.4 0 6.5 1.3 8.9 3.5L-237 303l-5.5 12.9c-2.2-2.4-3.5-5.5-3.5-8.9zm15.3 2.3l-8 3.4 3.4-8 4.6 4.6zM-233 320c-3.4 0-6.5-1.3-8.9-3.5l12.9-5.5 5.5-12.9c2.2 2.3 3.5 5.4 3.5 8.9 0 7.2-5.8 13-13 13z"/>
</svg>
