<svg xmlns="http://www.w3.org/2000/svg" width="20.2" height="24.6" viewBox="0 0 20.2 24.6">
  <path fill="#b72c2c" d="M1.8 15c0-.6-.2-1-.5-1.4-.2-.4-.7-.6-1.3-.6v-1.4c.6 0 1.1-.2 1.4-.5.3-.4.5-.8.5-1.4 0-.5 0-.9-.1-1.3-.1-.6-.2-1-.3-1.4s-.2-.9-.2-1.4c-.1-.4-.1-.9-.1-1.3 0-.6.1-1.2.3-1.7.2-.5.5-1 .8-1.3.4-.4.8-.7 1.4-.9S4.9 0 5.6 0h.7v1.1c0 .2-.1.3-.2.4-.1 0-.2.1-.3.1h-.3c-.7 0-1.2.2-1.6.7-.4.4-.6 1-.6 1.8 0 .5 0 1 .1 1.5 0 .4.1.9.2 1.3s.2.9.2 1.3c.1.4.1.9.1 1.3 0 .3 0 .7-.1 1s-.2.6-.4.8l-.6.6s-.5.3-.8.4c.3.1.6.2.8.4.2.2.5.4.6.6s.3.5.4.8c.1.3.1.6.1.9 0 .5 0 .9-.1 1.3s-.1.9-.2 1.3-.2.9-.2 1.4c-.1.5-.1 1-.1 1.5 0 .8.2 1.4.6 1.8.4.5.9.7 1.6.7h.3c.1 0 .2 0 .4.1.1.1.2.2.2.4v1.1h-.8c-.7 0-1.4-.1-1.9-.3-.6-.2-1-.5-1.4-.9-.4-.4-.7-.8-.9-1.4s-.2-1-.2-1.7c0-.5 0-.9.1-1.4.1-.4.2-.9.2-1.3s.2-.9.2-1.3c.1-.4.1-.9.1-1.3zm16.6 0c0 .4 0 .9.1 1.3s.2.9.2 1.3c.1.4.2.9.2 1.3.1.4.1.9.1 1.4 0 .6-.1 1.2-.3 1.7s-.5 1-.8 1.4c-.4.4-.8.7-1.4.9-.6.2-1.2.3-1.9.3h-.7v-1.1c0-.2.1-.3.2-.4s.2-.1.4-.1h.3c.7 0 1.2-.2 1.6-.7.4-.4.6-1.1.6-1.8 0-.5 0-1-.1-1.5s-.1-.9-.2-1.4c-.1-.4-.2-.9-.2-1.3s-.1-.9-.1-1.3c0-.3 0-.6.1-.9.1-.3.2-.5.4-.8l.6-.6c.2-.2.5-.3.8-.4-.3-.1-.6-.2-.8-.4s-.5-.4-.6-.6c-.2-.2-.3-.5-.4-.8-.1-.3-.1-.6-.1-1s0-.9.1-1.3.1-.9.2-1.3.2-.9.2-1.4c.1-.5.1-1 .1-1.5 0-.8-.2-1.4-.6-1.8s-.9-.7-1.6-.7h-.3c-.1 0-.2 0-.4-.1-.1-.1-.2-.2-.2-.4V0h.7c.7 0 1.4.1 1.9.3.6.2 1 .5 1.4.9.4.4.6.8.8 1.3.2.5.3 1.1.3 1.7 0 .5 0 .9-.1 1.4-.1.5-.2.9-.2 1.3-.1.4-.2.9-.2 1.3-.1.4-.1.9-.1 1.3 0 .6.2 1 .5 1.4s.8.5 1.4.5V13c-.6 0-1.1.2-1.4.5-.4.4-.5.9-.5 1.5z"/>
</svg>
